<svg width="398" height="388" viewBox="0 0 398 388" fill="none" xmlns="http://www.w3.org/2000/svg">
<path d="M374 171C454.4 122.2 311.5 41.4925 223 14.5C123 -16 -45.3 7.70004 11.5 36.5C321 138 88 162 92 187.5C96 213 126 200.5 175 240C224 279.5 23.4999 271.5 21.4999 309C19.4999 346.5 80.4998 385.5 175 387.5C269.5 389.5 338.5 381.5 374 342.5C402.4 311.3 379.166 282.167 364 271.5C333.833 258.333 293.6 219.8 374 171Z" fill="url(#paint0_linear_10_35)"/>
<defs>
<linearGradient id="paint0_linear_10_35" x1="0.0738525" y1="194.015" x2="397.687" y2="194.015" gradientUnits="userSpaceOnUse">
<stop stop-color="#0A8754"/>
<stop offset="1" stop-color="#DEB841"/>
</linearGradient>
</defs>
</svg>
